<mxfile host="app.diagrams.net" modified="2023-08-25T11:21:35.239Z" agent="Mozilla/5.0 (Windows NT 10.0; Win64; x64) AppleWebKit/537.36 (KHTML, like Gecko) Chrome/116.0.0.0 Safari/537.36 Edg/116.0.1938.54" etag="eFurq2HRz4lXaXrKsIoD" version="21.6.9" type="github">
  <diagram name="第 1 页" id="OmBG7EWBMSIskVQeIFjA">
    <mxGraphModel dx="2000" dy="819" grid="1" gridSize="10" guides="1" tooltips="1" connect="1" arrows="1" fold="1" page="1" pageScale="1" pageWidth="827" pageHeight="1169" math="0" shadow="0">
      <root>
        <mxCell id="0" />
        <mxCell id="1" parent="0" />
        <mxCell id="ULxk1G7-RHNaBDPGozxA-1" value="&lt;span style=&quot;font-size: 23px;&quot;&gt;3&lt;br&gt;*&lt;br&gt;n&lt;br&gt;&lt;/span&gt;" style="rounded=0;whiteSpace=wrap;html=1;" vertex="1" parent="1">
          <mxGeometry x="80" y="200" width="40" height="160" as="geometry" />
        </mxCell>
        <mxCell id="ULxk1G7-RHNaBDPGozxA-3" value="" style="endArrow=classic;html=1;rounded=0;" edge="1" parent="1">
          <mxGeometry width="50" height="50" relative="1" as="geometry">
            <mxPoint y="279.5" as="sourcePoint" />
            <mxPoint x="70" y="279.5" as="targetPoint" />
          </mxGeometry>
        </mxCell>
        <mxCell id="ULxk1G7-RHNaBDPGozxA-4" value="&lt;span style=&quot;font-size: 20px;&quot;&gt;3&lt;br&gt;×&lt;br&gt;20&lt;br&gt;48&lt;br&gt;&lt;/span&gt;" style="rounded=0;whiteSpace=wrap;html=1;" vertex="1" parent="1">
          <mxGeometry x="240" y="200" width="40" height="160" as="geometry" />
        </mxCell>
        <mxCell id="ULxk1G7-RHNaBDPGozxA-5" value="" style="endArrow=classic;html=1;rounded=0;" edge="1" parent="1">
          <mxGeometry width="50" height="50" relative="1" as="geometry">
            <mxPoint x="130" y="280" as="sourcePoint" />
            <mxPoint x="230" y="280" as="targetPoint" />
          </mxGeometry>
        </mxCell>
        <mxCell id="ULxk1G7-RHNaBDPGozxA-6" value="" style="endArrow=none;html=1;rounded=0;" edge="1" parent="1">
          <mxGeometry width="50" height="50" relative="1" as="geometry">
            <mxPoint x="180" y="400" as="sourcePoint" />
            <mxPoint x="180" y="280" as="targetPoint" />
          </mxGeometry>
        </mxCell>
        <mxCell id="ULxk1G7-RHNaBDPGozxA-7" value="&lt;font style=&quot;font-size: 17px;&quot;&gt;&lt;br&gt;find&amp;nbsp; P={max(Pi,{Po})}&lt;br&gt;&lt;br&gt;i=1,2,3……2048&lt;br&gt;&lt;br&gt;&lt;/font&gt;" style="rounded=1;whiteSpace=wrap;html=1;" vertex="1" parent="1">
          <mxGeometry x="80" y="400" width="200" height="80" as="geometry" />
        </mxCell>
        <mxCell id="ULxk1G7-RHNaBDPGozxA-8" value="" style="endArrow=classic;html=1;rounded=0;exitX=1;exitY=0.5;exitDx=0;exitDy=0;entryX=0;entryY=0.5;entryDx=0;entryDy=0;" edge="1" parent="1" source="ULxk1G7-RHNaBDPGozxA-4" target="ULxk1G7-RHNaBDPGozxA-9">
          <mxGeometry width="50" height="50" relative="1" as="geometry">
            <mxPoint x="390" y="440" as="sourcePoint" />
            <mxPoint x="350" y="280" as="targetPoint" />
            <Array as="points">
              <mxPoint x="320" y="280" />
            </Array>
          </mxGeometry>
        </mxCell>
        <mxCell id="ULxk1G7-RHNaBDPGozxA-16" value="" style="rounded=0;whiteSpace=wrap;html=1;" vertex="1" parent="1">
          <mxGeometry x="290" y="20" width="250" height="140" as="geometry" />
        </mxCell>
        <mxCell id="ULxk1G7-RHNaBDPGozxA-9" value="&lt;font style=&quot;font-size: 16px;&quot;&gt;input &lt;br&gt;transform&lt;/font&gt;" style="rounded=0;whiteSpace=wrap;html=1;fillColor=#dae8fc;strokeColor=#6c8ebf;" vertex="1" parent="1">
          <mxGeometry x="360" y="218" width="120" height="125" as="geometry" />
        </mxCell>
        <mxCell id="ULxk1G7-RHNaBDPGozxA-11" value="" style="endArrow=classic;html=1;rounded=0;" edge="1" parent="1">
          <mxGeometry width="50" height="50" relative="1" as="geometry">
            <mxPoint x="270" y="120" as="sourcePoint" />
            <mxPoint x="380" y="120" as="targetPoint" />
          </mxGeometry>
        </mxCell>
        <mxCell id="ULxk1G7-RHNaBDPGozxA-12" value="" style="endArrow=classic;html=1;rounded=0;" edge="1" parent="1">
          <mxGeometry width="50" height="50" relative="1" as="geometry">
            <mxPoint x="310" y="120" as="sourcePoint" />
            <mxPoint x="350" y="80" as="targetPoint" />
          </mxGeometry>
        </mxCell>
        <mxCell id="ULxk1G7-RHNaBDPGozxA-13" value="&lt;font style=&quot;font-size: 16px;&quot;&gt;T-Net&lt;/font&gt;" style="rounded=1;whiteSpace=wrap;html=1;" vertex="1" parent="1">
          <mxGeometry x="350" y="35" width="90" height="45" as="geometry" />
        </mxCell>
        <mxCell id="ULxk1G7-RHNaBDPGozxA-14" value="&lt;font style=&quot;font-size: 16px;&quot;&gt;Matrix Multiply&lt;/font&gt;" style="rounded=1;whiteSpace=wrap;html=1;" vertex="1" parent="1">
          <mxGeometry x="380" y="90" width="90" height="45" as="geometry" />
        </mxCell>
        <mxCell id="ULxk1G7-RHNaBDPGozxA-15" value="" style="endArrow=classic;html=1;rounded=0;" edge="1" parent="1">
          <mxGeometry width="50" height="50" relative="1" as="geometry">
            <mxPoint x="470" y="120" as="sourcePoint" />
            <mxPoint x="570" y="120" as="targetPoint" />
          </mxGeometry>
        </mxCell>
        <mxCell id="ULxk1G7-RHNaBDPGozxA-17" value="" style="endArrow=classic;html=1;rounded=0;entryX=0;entryY=0.5;entryDx=0;entryDy=0;fillColor=#dae8fc;strokeColor=#6c8ebf;" edge="1" parent="1">
          <mxGeometry width="50" height="50" relative="1" as="geometry">
            <mxPoint x="480" y="280" as="sourcePoint" />
            <mxPoint x="550" y="279.5" as="targetPoint" />
            <Array as="points">
              <mxPoint x="516" y="279.5" />
            </Array>
          </mxGeometry>
        </mxCell>
        <mxCell id="ULxk1G7-RHNaBDPGozxA-18" value="&lt;span style=&quot;font-size: 20px;&quot;&gt;3&lt;br&gt;×&lt;br&gt;20&lt;br&gt;48&lt;br&gt;&lt;/span&gt;" style="rounded=0;whiteSpace=wrap;html=1;fillColor=#dae8fc;strokeColor=#6c8ebf;" vertex="1" parent="1">
          <mxGeometry x="550" y="200" width="40" height="160" as="geometry" />
        </mxCell>
        <mxCell id="ULxk1G7-RHNaBDPGozxA-19" value="" style="endArrow=classic;html=1;rounded=0;fillColor=#dae8fc;strokeColor=#6c8ebf;" edge="1" parent="1">
          <mxGeometry width="50" height="50" relative="1" as="geometry">
            <mxPoint x="590" y="224.5" as="sourcePoint" />
            <mxPoint x="660" y="224.5" as="targetPoint" />
          </mxGeometry>
        </mxCell>
        <mxCell id="ULxk1G7-RHNaBDPGozxA-20" value="" style="endArrow=classic;html=1;rounded=0;fillColor=#dae8fc;strokeColor=#6c8ebf;" edge="1" parent="1">
          <mxGeometry width="50" height="50" relative="1" as="geometry">
            <mxPoint x="590" y="330" as="sourcePoint" />
            <mxPoint x="660" y="330" as="targetPoint" />
          </mxGeometry>
        </mxCell>
        <mxCell id="ULxk1G7-RHNaBDPGozxA-21" value="" style="endArrow=classic;html=1;rounded=0;fillColor=#dae8fc;strokeColor=#6c8ebf;" edge="1" parent="1">
          <mxGeometry width="50" height="50" relative="1" as="geometry">
            <mxPoint x="590" y="264.5" as="sourcePoint" />
            <mxPoint x="660" y="264.5" as="targetPoint" />
          </mxGeometry>
        </mxCell>
        <mxCell id="ULxk1G7-RHNaBDPGozxA-22" value="" style="rounded=0;whiteSpace=wrap;html=1;fillColor=#dae8fc;strokeColor=#6c8ebf;" vertex="1" parent="1">
          <mxGeometry x="660" y="210" width="120" height="30" as="geometry" />
        </mxCell>
        <mxCell id="ULxk1G7-RHNaBDPGozxA-23" value="" style="rounded=0;whiteSpace=wrap;html=1;fillColor=#dae8fc;strokeColor=#6c8ebf;" vertex="1" parent="1">
          <mxGeometry x="660" y="250" width="120" height="30" as="geometry" />
        </mxCell>
        <mxCell id="ULxk1G7-RHNaBDPGozxA-24" value="" style="rounded=0;whiteSpace=wrap;html=1;fillColor=#dae8fc;strokeColor=#6c8ebf;" vertex="1" parent="1">
          <mxGeometry x="660" y="312.5" width="120" height="30" as="geometry" />
        </mxCell>
        <mxCell id="ULxk1G7-RHNaBDPGozxA-25" value="&lt;font style=&quot;font-size: 16px;&quot;&gt;...shared...&lt;/font&gt;" style="text;html=1;align=center;verticalAlign=middle;resizable=0;points=[];autosize=1;strokeColor=#6c8ebf;fillColor=#dae8fc;" vertex="1" parent="1">
          <mxGeometry x="670" y="282.5" width="100" height="30" as="geometry" />
        </mxCell>
        <mxCell id="ULxk1G7-RHNaBDPGozxA-26" value="" style="endArrow=classic;html=1;rounded=0;fillColor=#dae8fc;strokeColor=#6c8ebf;" edge="1" parent="1">
          <mxGeometry width="50" height="50" relative="1" as="geometry">
            <mxPoint x="780" y="226.75" as="sourcePoint" />
            <mxPoint x="850" y="226.75" as="targetPoint" />
          </mxGeometry>
        </mxCell>
        <mxCell id="ULxk1G7-RHNaBDPGozxA-27" value="" style="endArrow=classic;html=1;rounded=0;fillColor=#dae8fc;strokeColor=#6c8ebf;" edge="1" parent="1">
          <mxGeometry width="50" height="50" relative="1" as="geometry">
            <mxPoint x="780" y="332.25" as="sourcePoint" />
            <mxPoint x="850" y="332.25" as="targetPoint" />
          </mxGeometry>
        </mxCell>
        <mxCell id="ULxk1G7-RHNaBDPGozxA-28" value="" style="endArrow=classic;html=1;rounded=0;fillColor=#dae8fc;strokeColor=#6c8ebf;" edge="1" parent="1">
          <mxGeometry width="50" height="50" relative="1" as="geometry">
            <mxPoint x="780" y="266.75" as="sourcePoint" />
            <mxPoint x="850" y="266.75" as="targetPoint" />
          </mxGeometry>
        </mxCell>
        <mxCell id="ULxk1G7-RHNaBDPGozxA-29" value="&lt;span style=&quot;font-size: 20px;&quot;&gt;64&lt;br&gt;×&lt;br&gt;20&lt;br&gt;48&lt;br&gt;&lt;/span&gt;" style="rounded=0;whiteSpace=wrap;html=1;fillColor=#dae8fc;strokeColor=#6c8ebf;" vertex="1" parent="1">
          <mxGeometry x="850" y="200" width="40" height="160" as="geometry" />
        </mxCell>
        <mxCell id="ULxk1G7-RHNaBDPGozxA-30" value="" style="endArrow=classic;html=1;rounded=0;exitX=1;exitY=0.5;exitDx=0;exitDy=0;fillColor=#dae8fc;strokeColor=#6c8ebf;" edge="1" parent="1">
          <mxGeometry width="50" height="50" relative="1" as="geometry">
            <mxPoint x="890" y="279" as="sourcePoint" />
            <mxPoint x="1040" y="279" as="targetPoint" />
            <Array as="points">
              <mxPoint x="930" y="279" />
            </Array>
          </mxGeometry>
        </mxCell>
        <mxCell id="ULxk1G7-RHNaBDPGozxA-31" value="&lt;font style=&quot;font-size: 16px;&quot;&gt;Max Pooling&lt;/font&gt;" style="text;html=1;align=center;verticalAlign=middle;resizable=0;points=[];autosize=1;strokeColor=#6c8ebf;fillColor=#dae8fc;" vertex="1" parent="1">
          <mxGeometry x="910" y="250" width="110" height="30" as="geometry" />
        </mxCell>
        <mxCell id="ULxk1G7-RHNaBDPGozxA-32" value="&lt;font style=&quot;font-size: 16px;&quot;&gt;64&lt;/font&gt;" style="rounded=0;whiteSpace=wrap;html=1;fillColor=#dae8fc;strokeColor=#6c8ebf;" vertex="1" parent="1">
          <mxGeometry x="1040" y="260" width="190" height="40" as="geometry" />
        </mxCell>
        <mxCell id="ULxk1G7-RHNaBDPGozxA-33" value="&lt;font style=&quot;font-size: 16px;&quot;&gt;global feature&lt;/font&gt;" style="text;html=1;align=center;verticalAlign=middle;resizable=0;points=[];autosize=1;strokeColor=#6c8ebf;fillColor=#dae8fc;" vertex="1" parent="1">
          <mxGeometry x="1080" y="218" width="120" height="30" as="geometry" />
        </mxCell>
        <mxCell id="ULxk1G7-RHNaBDPGozxA-34" value="" style="endArrow=none;html=1;rounded=0;" edge="1" parent="1">
          <mxGeometry width="50" height="50" relative="1" as="geometry">
            <mxPoint x="320" y="430" as="sourcePoint" />
            <mxPoint x="320" y="280" as="targetPoint" />
          </mxGeometry>
        </mxCell>
        <mxCell id="ULxk1G7-RHNaBDPGozxA-39" value="" style="endArrow=classic;html=1;rounded=0;entryX=-0.022;entryY=0.425;entryDx=0;entryDy=0;entryPerimeter=0;" edge="1" parent="1" target="ULxk1G7-RHNaBDPGozxA-43">
          <mxGeometry width="50" height="50" relative="1" as="geometry">
            <mxPoint x="320" y="430" as="sourcePoint" />
            <mxPoint x="350" y="430" as="targetPoint" />
          </mxGeometry>
        </mxCell>
        <mxCell id="ULxk1G7-RHNaBDPGozxA-42" value="" style="endArrow=none;dashed=1;html=1;dashPattern=1 3;strokeWidth=2;rounded=0;entryX=0.5;entryY=1;entryDx=0;entryDy=0;" edge="1" parent="1" target="ULxk1G7-RHNaBDPGozxA-16">
          <mxGeometry width="50" height="50" relative="1" as="geometry">
            <mxPoint x="414" y="218" as="sourcePoint" />
            <mxPoint x="464" y="168" as="targetPoint" />
          </mxGeometry>
        </mxCell>
        <mxCell id="ULxk1G7-RHNaBDPGozxA-43" value="&lt;span style=&quot;font-size: 16px;&quot;&gt;G(P,E)&lt;br&gt;&lt;/span&gt;" style="rounded=0;whiteSpace=wrap;html=1;fillColor=#f8cecc;strokeColor=#b85450;" vertex="1" parent="1">
          <mxGeometry x="360" y="377.5" width="120" height="125" as="geometry" />
        </mxCell>
        <mxCell id="ULxk1G7-RHNaBDPGozxA-44" value="&lt;span style=&quot;font-size: 20px;&quot;&gt;3&lt;br&gt;×&lt;br&gt;20&lt;br&gt;48&lt;br&gt;&lt;/span&gt;" style="rounded=0;whiteSpace=wrap;html=1;fillColor=#f8cecc;strokeColor=#b85450;" vertex="1" parent="1">
          <mxGeometry x="550" y="370" width="40" height="160" as="geometry" />
        </mxCell>
        <mxCell id="ULxk1G7-RHNaBDPGozxA-45" value="" style="endArrow=classic;html=1;rounded=0;fillColor=#f8cecc;strokeColor=#b85450;" edge="1" parent="1">
          <mxGeometry width="50" height="50" relative="1" as="geometry">
            <mxPoint x="590" y="394.5" as="sourcePoint" />
            <mxPoint x="660" y="394.5" as="targetPoint" />
          </mxGeometry>
        </mxCell>
        <mxCell id="ULxk1G7-RHNaBDPGozxA-46" value="" style="endArrow=classic;html=1;rounded=0;fillColor=#f8cecc;strokeColor=#b85450;" edge="1" parent="1">
          <mxGeometry width="50" height="50" relative="1" as="geometry">
            <mxPoint x="590" y="500" as="sourcePoint" />
            <mxPoint x="660" y="500" as="targetPoint" />
          </mxGeometry>
        </mxCell>
        <mxCell id="ULxk1G7-RHNaBDPGozxA-47" value="" style="endArrow=classic;html=1;rounded=0;fillColor=#f8cecc;strokeColor=#b85450;" edge="1" parent="1">
          <mxGeometry width="50" height="50" relative="1" as="geometry">
            <mxPoint x="590" y="434.5" as="sourcePoint" />
            <mxPoint x="660" y="434.5" as="targetPoint" />
          </mxGeometry>
        </mxCell>
        <mxCell id="ULxk1G7-RHNaBDPGozxA-48" value="" style="rounded=0;whiteSpace=wrap;html=1;fillColor=#f8cecc;strokeColor=#b85450;" vertex="1" parent="1">
          <mxGeometry x="660" y="380" width="120" height="30" as="geometry" />
        </mxCell>
        <mxCell id="ULxk1G7-RHNaBDPGozxA-49" value="" style="rounded=0;whiteSpace=wrap;html=1;fillColor=#f8cecc;strokeColor=#b85450;" vertex="1" parent="1">
          <mxGeometry x="660" y="420" width="120" height="30" as="geometry" />
        </mxCell>
        <mxCell id="ULxk1G7-RHNaBDPGozxA-50" value="" style="rounded=0;whiteSpace=wrap;html=1;fillColor=#f8cecc;strokeColor=#b85450;" vertex="1" parent="1">
          <mxGeometry x="660" y="482.5" width="120" height="30" as="geometry" />
        </mxCell>
        <mxCell id="ULxk1G7-RHNaBDPGozxA-51" value="&lt;font style=&quot;font-size: 16px;&quot;&gt;...shared...&lt;/font&gt;" style="text;html=1;align=center;verticalAlign=middle;resizable=0;points=[];autosize=1;strokeColor=#b85450;fillColor=#f8cecc;" vertex="1" parent="1">
          <mxGeometry x="670" y="452.5" width="100" height="30" as="geometry" />
        </mxCell>
        <mxCell id="ULxk1G7-RHNaBDPGozxA-52" value="" style="endArrow=classic;html=1;rounded=0;fillColor=#f8cecc;strokeColor=#b85450;" edge="1" parent="1">
          <mxGeometry width="50" height="50" relative="1" as="geometry">
            <mxPoint x="780" y="396.75" as="sourcePoint" />
            <mxPoint x="850" y="396.75" as="targetPoint" />
          </mxGeometry>
        </mxCell>
        <mxCell id="ULxk1G7-RHNaBDPGozxA-53" value="" style="endArrow=classic;html=1;rounded=0;fillColor=#f8cecc;strokeColor=#b85450;" edge="1" parent="1">
          <mxGeometry width="50" height="50" relative="1" as="geometry">
            <mxPoint x="780" y="502.25" as="sourcePoint" />
            <mxPoint x="850" y="502.25" as="targetPoint" />
          </mxGeometry>
        </mxCell>
        <mxCell id="ULxk1G7-RHNaBDPGozxA-54" value="" style="endArrow=classic;html=1;rounded=0;fillColor=#f8cecc;strokeColor=#b85450;" edge="1" parent="1">
          <mxGeometry width="50" height="50" relative="1" as="geometry">
            <mxPoint x="780" y="436.75" as="sourcePoint" />
            <mxPoint x="850" y="436.75" as="targetPoint" />
          </mxGeometry>
        </mxCell>
        <mxCell id="ULxk1G7-RHNaBDPGozxA-55" value="&lt;span style=&quot;font-size: 20px;&quot;&gt;64&lt;br&gt;×&lt;br&gt;20&lt;br&gt;48&lt;br&gt;&lt;/span&gt;" style="rounded=0;whiteSpace=wrap;html=1;fillColor=#f8cecc;strokeColor=#b85450;" vertex="1" parent="1">
          <mxGeometry x="850" y="370" width="40" height="160" as="geometry" />
        </mxCell>
        <mxCell id="ULxk1G7-RHNaBDPGozxA-56" value="" style="endArrow=classic;html=1;rounded=0;entryX=0;entryY=0.5;entryDx=0;entryDy=0;fillColor=#f8cecc;strokeColor=#b85450;" edge="1" parent="1">
          <mxGeometry width="50" height="50" relative="1" as="geometry">
            <mxPoint x="480" y="440" as="sourcePoint" />
            <mxPoint x="550" y="439.5" as="targetPoint" />
            <Array as="points">
              <mxPoint x="516" y="439.5" />
            </Array>
          </mxGeometry>
        </mxCell>
        <mxCell id="ULxk1G7-RHNaBDPGozxA-61" value="" style="endArrow=classic;html=1;rounded=0;exitX=1;exitY=0.5;exitDx=0;exitDy=0;fillColor=#f8cecc;strokeColor=#b85450;" edge="1" parent="1">
          <mxGeometry width="50" height="50" relative="1" as="geometry">
            <mxPoint x="890" y="441" as="sourcePoint" />
            <mxPoint x="1040" y="441" as="targetPoint" />
            <Array as="points">
              <mxPoint x="930" y="441" />
            </Array>
          </mxGeometry>
        </mxCell>
        <mxCell id="ULxk1G7-RHNaBDPGozxA-62" value="&lt;font style=&quot;font-size: 16px;&quot;&gt;Max Pooling&lt;/font&gt;" style="text;html=1;align=center;verticalAlign=middle;resizable=0;points=[];autosize=1;strokeColor=#b85450;fillColor=#f8cecc;" vertex="1" parent="1">
          <mxGeometry x="910" y="412" width="110" height="30" as="geometry" />
        </mxCell>
        <mxCell id="ULxk1G7-RHNaBDPGozxA-63" value="&lt;font style=&quot;font-size: 16px;&quot;&gt;64&lt;/font&gt;" style="rounded=0;whiteSpace=wrap;html=1;fillColor=#f8cecc;strokeColor=#b85450;" vertex="1" parent="1">
          <mxGeometry x="1040" y="422" width="190" height="40" as="geometry" />
        </mxCell>
        <mxCell id="ULxk1G7-RHNaBDPGozxA-64" value="&lt;font style=&quot;font-size: 16px;&quot;&gt;part feature&lt;/font&gt;" style="text;html=1;align=center;verticalAlign=middle;resizable=0;points=[];autosize=1;strokeColor=#b85450;fillColor=#f8cecc;" vertex="1" parent="1">
          <mxGeometry x="1085" y="380" width="110" height="30" as="geometry" />
        </mxCell>
        <mxCell id="ULxk1G7-RHNaBDPGozxA-65" value="" style="strokeWidth=2;html=1;shape=mxgraph.flowchart.annotation_2;align=left;labelPosition=right;pointerEvents=1;rotation=-180;" vertex="1" parent="1">
          <mxGeometry x="1230" y="280" width="50" height="160" as="geometry" />
        </mxCell>
        <mxCell id="ULxk1G7-RHNaBDPGozxA-66" value="&lt;font style=&quot;font-size: 16px;&quot;&gt;MFGNet&lt;/font&gt;" style="rounded=0;whiteSpace=wrap;html=1;" vertex="1" parent="1">
          <mxGeometry x="1280" y="330" width="120" height="60" as="geometry" />
        </mxCell>
      </root>
    </mxGraphModel>
  </diagram>
</mxfile>
